Pacifico-Light.ufo
<glyph name="exclam" format="1">
  <advance width="355"/>
  <unicode hex="0021"/>
  <outline>
    <contour>
      <point x="191" y="20" type="curve" smooth="yes"/>
      <point x="212" y="20"/>
      <point x="232" y="39"/>
      <point x="232" y="65" type="curve" smooth="yes"/>
      <point x="232" y="89"/>
      <point x="222" y="101"/>
      <point x="197" y="101" type="curve" smooth="yes"/>
      <point x="175" y="101"/>
      <point x="155" y="82"/>
      <point x="155" y="55" type="curve" smooth="yes"/>
      <point x="155" y="31"/>
      <point x="166" y="20"/>
    </contour>
    <contour>
      <point x="385" y="609" type="curve" smooth="yes"/>
      <point x="385" y="626"/>
      <point x="374" y="638"/>
      <point x="348" y="638" type="curve" smooth="yes"/>
      <point x="326" y="638"/>
      <point x="312" y="622"/>
      <point x="306" y="599" type="curve" smooth="yes"/>
      <point x="207" y="198" type="line" smooth="yes"/>
      <point x="205" y="190"/>
      <point x="210" y="184"/>
      <point x="216" y="184" type="curve" smooth="yes"/>
      <point x="220" y="184"/>
      <point x="226" y="187"/>
      <point x="229" y="195" type="curve" smooth="yes"/>
      <point x="361" y="530" type="line" smooth="yes"/>
      <point x="374" y="562"/>
      <point x="385" y="589"/>
    </contour>
  </outline>
</glyph>
<glyph name="ampersand" format="1">
  <advance width="521"/>
  <unicode hex="0026"/>
  <outline>
    <contour>
      <point x="234" y="342" type="curve"/>
      <point x="212" y="375"/>
      <point x="207" y="408"/>
      <point x="207" y="439" type="curve" smooth="yes"/>
      <point x="207" y="479"/>
      <point x="227" y="511"/>
      <point x="271" y="511" type="curve" smooth="yes"/>
      <point x="304" y="511"/>
      <point x="322" y="500"/>
      <point x="322" y="465" type="curve" smooth="yes"/>
      <point x="322" y="401"/>
      <point x="264" y="359"/>
    </contour>
    <contour>
      <point x="193" y="52" type="curve" smooth="yes"/>
      <point x="146" y="52"/>
      <point x="102" y="87"/>
      <point x="102" y="138" type="curve" smooth="yes"/>
      <point x="102" y="202"/>
      <point x="153" y="239"/>
      <point x="186" y="264" type="curve"/>
      <point x="222" y="183"/>
      <point x="254" y="132"/>
      <point x="301" y="74" type="curve"/>
      <point x="275" y="63"/>
      <point x="238" y="52"/>
    </contour>
    <contour>
      <point x="468" y="-82" type="curve" smooth="yes"/>
      <point x="511" y="-82"/>
      <point x="538" y="-60"/>
      <point x="538" y="-54" type="curve" smooth="yes"/>
      <point x="538" y="-42"/>
      <point x="485" y="-26"/>
      <point x="461" y="-7" type="curve" smooth="yes"/>
      <point x="445" y="6"/>
      <point x="429" y="21"/>
      <point x="394" y="54" type="curve"/>
      <point x="453" y="85"/>
      <point x="498" y="129"/>
      <point x="498" y="184" type="curve" smooth="yes"/>
      <point x="498" y="197"/>
      <point x="471" y="215"/>
      <point x="454" y="215" type="curve" smooth="yes"/>
      <point x="449" y="215"/>
      <point x="444" y="213"/>
      <point x="442" y="209" type="curve" smooth="yes"/>
      <point x="442" y="155"/>
      <point x="411" y="127"/>
      <point x="358" y="105" type="curve"/>
      <point x="326" y="151"/>
      <point x="276" y="238"/>
      <point x="248" y="299" type="curve"/>
      <point x="304" y="332"/>
      <point x="373" y="392"/>
      <point x="373" y="474" type="curve" smooth="yes"/>
      <point x="373" y="532"/>
      <point x="327" y="566"/>
      <point x="267" y="566" type="curve" smooth="yes"/>
      <point x="192" y="566"/>
      <point x="129" y="508"/>
      <point x="129" y="435" type="curve" smooth="yes"/>
      <point x="129" y="383"/>
      <point x="144" y="346"/>
      <point x="163" y="312" type="curve"/>
      <point x="103" y="280"/>
      <point x="30" y="211"/>
      <point x="30" y="125" type="curve" smooth="yes"/>
      <point x="30" y="47"/>
      <point x="105" y="0"/>
      <point x="191" y="0" type="curve" smooth="yes"/>
      <point x="256" y="0"/>
      <point x="306" y="15"/>
      <point x="330" y="25" type="curve"/>
      <point x="342" y="7"/>
      <point x="374" y="-28"/>
      <point x="410" y="-63" type="curve" smooth="yes"/>
      <point x="425" y="-80"/>
      <point x="447" y="-82"/>
    </contour>
  </outline>
</glyph>
<glyph name="plus" format="1">
  <advance width="514"/>
  <unicode hex="002B"/>
  <outline>
    <contour>
      <point x="263" y="27" type="curve" smooth="yes"/>
      <point x="280" y="27"/>
      <point x="289" y="44"/>
      <point x="289" y="66" type="curve" smooth="yes"/>
      <point x="289" y="149" type="line"/>
      <point x="375" y="149" type="line" smooth="yes"/>
      <point x="394" y="149"/>
      <point x="408" y="162"/>
      <point x="408" y="180" type="curve" smooth="yes"/>
      <point x="408" y="193"/>
      <point x="398" y="201"/>
      <point x="381" y="201" type="curve" smooth="yes"/>
      <point x="289" y="201" type="line"/>
      <point x="289" y="292" type="line" smooth="yes"/>
      <point x="289" y="309"/>
      <point x="281" y="319"/>
      <point x="267" y="319" type="curve" smooth="yes"/>
      <point x="249" y="319"/>
      <point x="237" y="305"/>
      <point x="237" y="286" type="curve" smooth="yes"/>
      <point x="237" y="201" type="line"/>
      <point x="155" y="201" type="line" smooth="yes"/>
      <point x="133" y="201"/>
      <point x="116" y="192"/>
      <point x="116" y="175" type="curve" smooth="yes"/>
      <point x="116" y="158"/>
      <point x="132" y="149"/>
      <point x="153" y="149" type="curve" smooth="yes"/>
      <point x="237" y="149" type="line"/>
      <point x="237" y="64" type="line" smooth="yes"/>
      <point x="237" y="43"/>
      <point x="246" y="27"/>
    </contour>
  </outline>
</glyph>
<glyph name="zero" format="1">
  <advance width="417"/>
  <unicode hex="0030"/>
  <outline>
    <contour>
      <point x="47" y="185" type="curve" smooth="yes"/>
      <point x="47" y="80"/>
      <point x="82" y="-7"/>
      <point x="200" y="-7" type="curve" smooth="yes"/>
      <point x="344" y="-7"/>
      <point x="418" y="156"/>
      <point x="418" y="301" type="curve" smooth="yes"/>
      <point x="418" y="407"/>
      <point x="374" y="495"/>
      <point x="263" y="495" type="curve" smooth="yes"/>
      <point x="112" y="495"/>
      <point x="47" y="333"/>
    </contour>
    <contour>
      <point x="200" y="35" type="curve" smooth="yes"/>
      <point x="132" y="35"/>
      <point x="102" y="90"/>
      <point x="102" y="192" type="curve" smooth="yes"/>
      <point x="102" y="327"/>
      <point x="158" y="451"/>
      <point x="266" y="451" type="curve" smooth="yes"/>
      <point x="334" y="451"/>
      <point x="366" y="380"/>
      <point x="366" y="297" type="curve" smooth="yes"/>
      <point x="366" y="162"/>
      <point x="306" y="35"/>
    </contour>
  </outline>
</glyph>
<glyph name="six" format="1">
  <advance width="417"/>
  <unicode hex="0036"/>
  <outline>
    <contour>
      <point x="213" y="32" type="curve" smooth="yes"/>
      <point x="156" y="32"/>
      <point x="114" y="71"/>
      <point x="114" y="139" type="curve" smooth="yes"/>
      <point x="114" y="205"/>
      <point x="151" y="257"/>
      <point x="236" y="257" type="curve" smooth="yes"/>
      <point x="298" y="257"/>
      <point x="327" y="209"/>
      <point x="327" y="157" type="curve" smooth="yes"/>
      <point x="327" y="97"/>
      <point x="288" y="32"/>
    </contour>
    <contour>
      <point x="211" y="-10" type="curve" smooth="yes"/>
      <point x="312" y="-10"/>
      <point x="380" y="70"/>
      <point x="380" y="170" type="curve" smooth="yes"/>
      <point x="380" y="246"/>
      <point x="312" y="298"/>
      <point x="238" y="298" type="curve" smooth="yes"/>
      <point x="201" y="298"/>
      <point x="161" y="285"/>
      <point x="129" y="255" type="curve"/>
      <point x="159" y="327"/>
      <point x="237" y="419"/>
      <point x="354" y="471" type="curve" smooth="yes"/>
      <point x="366" y="478"/>
      <point x="373" y="487"/>
      <point x="373" y="499" type="curve" smooth="yes"/>
      <point x="373" y="510"/>
      <point x="363" y="518"/>
      <point x="347" y="518" type="curve" smooth="yes"/>
      <point x="337" y="518"/>
      <point x="331" y="515"/>
      <point x="321" y="510" type="curve" smooth="yes"/>
      <point x="203" y="453"/>
      <point x="69" y="327"/>
      <point x="62" y="155" type="curve" smooth="yes"/>
      <point x="62" y="147" type="line" smooth="yes"/>
      <point x="62" y="62"/>
      <point x="122" y="-10"/>
    </contour>
  </outline>
</glyph>
<glyph name="at" format="1">
  <advance width="766"/>
  <unicode hex="0040"/>
  <outline>
    <contour>
      <point x="476" y="195" type="line" smooth="yes"/>
      <point x="459" y="141"/>
      <point x="416" y="62"/>
      <point x="338" y="62" type="curve" smooth="yes"/>
      <point x="285" y="62"/>
      <point x="273" y="99"/>
      <point x="273" y="130" type="curve" smooth="yes"/>
      <point x="273" y="265"/>
      <point x="380" y="367"/>
      <point x="494" y="367" type="curve" smooth="yes"/>
      <point x="504" y="367"/>
      <point x="515" y="366"/>
      <point x="525" y="364" type="curve"/>
    </contour>
    <contour>
      <point x="482" y="98" type="curve" smooth="yes"/>
      <point x="482" y="52"/>
      <point x="508" y="34"/>
      <point x="550" y="34" type="curve" smooth="yes"/>
      <point x="640" y="34"/>
      <point x="721" y="145"/>
      <point x="721" y="294" type="curve" smooth="yes"/>
      <point x="721" y="451"/>
      <point x="626" y="536"/>
      <point x="462" y="536" type="curve" smooth="yes"/>
      <point x="252" y="536"/>
      <point x="43" y="357"/>
      <point x="43" y="123" type="curve" smooth="yes"/>
      <point x="43" y="-11"/>
      <point x="123" y="-134"/>
      <point x="333" y="-134" type="curve" smooth="yes"/>
      <point x="432" y="-134"/>
      <point x="537" y="-109"/>
      <point x="611" y="-65" type="curve" smooth="yes"/>
      <point x="622" y="-59"/>
      <point x="626" y="-49"/>
      <point x="626" y="-40" type="curve" smooth="yes"/>
      <point x="626" y="-28"/>
      <point x="618" y="-16"/>
      <point x="605" y="-16" type="curve" smooth="yes"/>
      <point x="601" y="-16"/>
      <point x="595" y="-18"/>
      <point x="590" y="-21" type="curve" smooth="yes"/>
      <point x="512" y="-66"/>
      <point x="425" y="-84"/>
      <point x="343" y="-84" type="curve" smooth="yes"/>
      <point x="162" y="-84"/>
      <point x="103" y="14"/>
      <point x="103" y="121" type="curve" smooth="yes"/>
      <point x="103" y="308"/>
      <point x="253" y="489"/>
      <point x="462" y="489" type="curve" smooth="yes"/>
      <point x="599" y="489"/>
      <point x="671" y="419"/>
      <point x="671" y="287" type="curve" smooth="yes"/>
      <point x="671" y="215"/>
      <point x="628" y="74"/>
      <point x="552" y="74" type="curve" smooth="yes"/>
      <point x="532" y="74"/>
      <point x="520" y="82"/>
      <point x="520" y="107" type="curve" smooth="yes"/>
      <point x="520" y="114"/>
      <point x="521" y="122"/>
      <point x="523" y="131" type="curve" smooth="yes"/>
      <point x="579" y="353" type="line" smooth="yes"/>
      <point x="581" y="362"/>
      <point x="582" y="369"/>
      <point x="582" y="375" type="curve" smooth="yes"/>
      <point x="582" y="392"/>
      <point x="573" y="399"/>
      <point x="554" y="399" type="curve" smooth="yes"/>
      <point x="551" y="399" type="line" smooth="yes"/>
      <point x="531" y="399" type="line" smooth="yes"/>
      <point x="516" y="399"/>
      <point x="525" y="416"/>
      <point x="515" y="416" type="curve" smooth="yes"/>
      <point x="378" y="416"/>
      <point x="217" y="295"/>
      <point x="217" y="127" type="curve" smooth="yes"/>
      <point x="217" y="59"/>
      <point x="260" y="16"/>
      <point x="328" y="16" type="curve" smooth="yes"/>
      <point x="403" y="16"/>
      <point x="457" y="64"/>
      <point x="489" y="145" type="curve"/>
      <point x="484" y="127"/>
      <point x="482" y="111"/>
    </contour>
  </outline>
</glyph>
<glyph name="E" format="1">
  <advance width="515"/>
  <unicode hex="0045"/>
  <outline>
    <contour>
      <point x="422" y="658" type="move" name="top"/>
    </contour>
    <contour>
      <point x="258" y="-83" type="move" name="bot"/>
    </contour>
    <contour>
      <point x="278" y="-87" type="move" name="ogonek"/>
    </contour>
    <contour>
      <point x="279" y="299" type="curve"/>
      <point x="175" y="286"/>
      <point x="32" y="196"/>
      <point x="32" y="61" type="curve" smooth="yes"/>
      <point x="32" y="-55"/>
      <point x="189" y="-56"/>
      <point x="243" y="-96" type="curve"/>
      <point x="372" y="-96"/>
      <point x="524" y="-32"/>
      <point x="595" y="77" type="curve" smooth="yes"/>
      <point x="599" y="83"/>
      <point x="602" y="90"/>
      <point x="602" y="96" type="curve" smooth="yes"/>
      <point x="602" y="110"/>
      <point x="592" y="118"/>
      <point x="582" y="118" type="curve" smooth="yes"/>
      <point x="576" y="118"/>
      <point x="567" y="115"/>
      <point x="561" y="104" type="curve" smooth="yes"/>
      <point x="502" y="17"/>
      <point x="359" y="-51"/>
      <point x="251" y="-51" type="curve" smooth="yes"/>
      <point x="168" y="-51"/>
      <point x="91" y="-25"/>
      <point x="91" y="58" type="curve" smooth="yes"/>
      <point x="91" y="170"/>
      <point x="208" y="265"/>
      <point x="333" y="265" type="curve" smooth="yes"/>
      <point x="360" y="265"/>
      <point x="373" y="274"/>
      <point x="373" y="291" type="curve" smooth="yes"/>
      <point x="373" y="303"/>
      <point x="366" y="313"/>
      <point x="354" y="316" type="curve" smooth="yes"/>
      <point x="242" y="341"/>
      <point x="178" y="408"/>
      <point x="178" y="492" type="curve" smooth="yes"/>
      <point x="178" y="586"/>
      <point x="263" y="636"/>
      <point x="380" y="636" type="curve" smooth="yes"/>
      <point x="437" y="636"/>
      <point x="494" y="618"/>
      <point x="530" y="582" type="curve"/>
      <point x="511" y="566"/>
      <point x="498" y="548"/>
      <point x="498" y="525" type="curve" smooth="yes"/>
      <point x="498" y="498"/>
      <point x="514" y="482"/>
      <point x="541" y="482" type="curve" smooth="yes"/>
      <point x="561" y="482"/>
      <point x="590" y="501"/>
      <point x="590" y="545" type="curve" smooth="yes"/>
      <point x="590" y="636"/>
      <point x="484" y="682"/>
      <point x="373" y="682" type="curve" smooth="yes"/>
      <point x="250" y="682"/>
      <point x="121" y="623"/>
      <point x="121" y="489" type="curve" smooth="yes"/>
      <point x="121" y="417"/>
      <point x="169" y="336"/>
    </contour>
  </outline>
</glyph>
<glyph name="G" format="1">
  <advance width="727"/>
  <unicode hex="0047"/>
  <outline>
    <contour>
      <point x="552" y="658" type="move" name="top"/>
    </contour>
    <contour>
      <point x="383" y="-321" type="move" name="bot"/>
    </contour>
    <contour>
      <point x="274" y="-282" type="curve" smooth="yes"/>
      <point x="274" y="-318"/>
      <point x="369" y="-330"/>
      <point x="398" y="-330" type="curve" smooth="yes"/>
      <point x="540" y="-330"/>
      <point x="626" y="-180"/>
      <point x="688" y="122" type="curve" smooth="yes"/>
      <point x="691" y="140"/>
      <point x="694" y="154"/>
      <point x="694" y="165" type="curve" smooth="yes"/>
      <point x="694" y="202"/>
      <point x="668" y="206"/>
      <point x="574" y="206" type="curve" smooth="yes"/>
      <point x="547" y="206"/>
      <point x="527" y="197"/>
      <point x="527" y="178" type="curve" smooth="yes"/>
      <point x="527" y="161"/>
      <point x="538" y="156"/>
      <point x="571" y="156" type="curve" smooth="yes"/>
      <point x="628" y="156"/>
      <point x="641" y="151"/>
      <point x="641" y="139" type="curve" smooth="yes"/>
      <point x="641" y="136"/>
      <point x="641" y="133"/>
      <point x="640" y="130" type="curve" smooth="yes"/>
      <point x="634" y="103" type="line"/>
      <point x="568" y="41"/>
      <point x="449" y="-10"/>
      <point x="345" y="-10" type="curve" smooth="yes"/>
      <point x="238" y="-10"/>
      <point x="148" y="43"/>
      <point x="148" y="193" type="curve" smooth="yes"/>
      <point x="148" y="472"/>
      <point x="369" y="619"/>
      <point x="508" y="619" type="curve" smooth="yes"/>
      <point x="575" y="619"/>
      <point x="625" y="586"/>
      <point x="625" y="517" type="curve" smooth="yes"/>
      <point x="625" y="480"/>
      <point x="638" y="474"/>
      <point x="657" y="474" type="curve" smooth="yes"/>
      <point x="679" y="474"/>
      <point x="691" y="482"/>
      <point x="691" y="513" type="curve" smooth="yes"/>
      <point x="691" y="623"/>
      <point x="614" y="676"/>
      <point x="514" y="676" type="curve" smooth="yes"/>
      <point x="335" y="676"/>
      <point x="83" y="505"/>
      <point x="83" y="191" type="curve" smooth="yes"/>
      <point x="83" y="0"/>
      <point x="200" y="-59"/>
      <point x="326" y="-59" type="curve" smooth="yes"/>
      <point x="448" y="-59"/>
      <point x="579" y="-4"/>
      <point x="620" y="39" type="curve"/>
      <point x="561" y="-213"/>
      <point x="489" y="-282"/>
      <point x="410" y="-282" type="curve" smooth="yes"/>
      <point x="379" y="-282"/>
      <point x="346" y="-272"/>
      <point x="313" y="-257" type="curve" smooth="yes"/>
      <point x="310" y="-256"/>
      <point x="307" y="-255"/>
      <point x="304" y="-255" type="curve" smooth="yes"/>
      <point x="289" y="-255"/>
      <point x="274" y="-268"/>
    </contour>
  </outline>
</glyph>
<glyph name="M" format="1">
  <advance width="770"/>
  <unicode hex="004D"/>
  <outline>
    <contour>
      <point x="552" y="658" type="move" name="top"/>
    </contour>
    <contour>
      <point x="138" y="575" type="curve" smooth="yes"/>
      <point x="178" y="575"/>
      <point x="193" y="536"/>
      <point x="193" y="477" type="curve" smooth="yes"/>
      <point x="193" y="420"/>
      <point x="178" y="343"/>
      <point x="151" y="265" type="curve" smooth="yes"/>
      <point x="55" y="-18" type="line" smooth="yes"/>
      <point x="55" y="-19"/>
      <point x="54" y="-21"/>
      <point x="54" y="-22" type="curve" smooth="yes"/>
      <point x="54" y="-32"/>
      <point x="67" y="-41"/>
      <point x="79" y="-41" type="curve" smooth="yes"/>
      <point x="103" y="-41"/>
      <point x="107" y="-24"/>
      <point x="119" y="9" type="curve" smooth="yes"/>
      <point x="242" y="348"/>
      <point x="323" y="578"/>
      <point x="415" y="578" type="curve" smooth="yes"/>
      <point x="447" y="578"/>
      <point x="461" y="543"/>
      <point x="461" y="490" type="curve" smooth="yes"/>
      <point x="461" y="434"/>
      <point x="445" y="357"/>
      <point x="422" y="282" type="curve" smooth="yes"/>
      <point x="332" y="-7" type="line" smooth="yes"/>
      <point x="329" y="-18"/>
      <point x="345" y="-31"/>
      <point x="362" y="-31" type="curve" smooth="yes"/>
      <point x="373" y="-31"/>
      <point x="385" y="-24"/>
      <point x="388" y="-6" type="curve" smooth="yes"/>
      <point x="477" y="292"/>
      <point x="560" y="533"/>
      <point x="652" y="546" type="curve" smooth="yes"/>
      <point x="655" y="546"/>
      <point x="659" y="547"/>
      <point x="662" y="547" type="curve" smooth="yes"/>
      <point x="690" y="547"/>
      <point x="700" y="526"/>
      <point x="700" y="503" type="curve" smooth="yes"/>
      <point x="700" y="498"/>
      <point x="700" y="494"/>
      <point x="699" y="489" type="curve" smooth="yes"/>
      <point x="679" y="363"/>
      <point x="604" y="224"/>
      <point x="595" y="85" type="curve" smooth="yes"/>
      <point x="595" y="77" type="line" smooth="yes"/>
      <point x="595" y="19"/>
      <point x="629" y="-34"/>
      <point x="707" y="-34" type="curve" smooth="yes"/>
      <point x="777" y="-34"/>
      <point x="830" y="8"/>
      <point x="852" y="45" type="curve" smooth="yes"/>
      <point x="853" y="48"/>
      <point x="854" y="51"/>
      <point x="854" y="54" type="curve" smooth="yes"/>
      <point x="854" y="67"/>
      <point x="844" y="82"/>
      <point x="833" y="82" type="curve" smooth="yes"/>
      <point x="829" y="82"/>
      <point x="824" y="80"/>
      <point x="820" y="75" type="curve" smooth="yes"/>
      <point x="797" y="48"/>
      <point x="757" y="15"/>
      <point x="709" y="15" type="curve" smooth="yes"/>
      <point x="666" y="15"/>
      <point x="649" y="41"/>
      <point x="649" y="77" type="curve" smooth="yes"/>
      <point x="649" y="88" type="line" smooth="yes"/>
      <point x="662" y="250"/>
      <point x="747" y="368"/>
      <point x="757" y="500" type="curve" smooth="yes"/>
      <point x="757" y="512" type="line" smooth="yes"/>
      <point x="757" y="576"/>
      <point x="711" y="606"/>
      <point x="674" y="606" type="curve" smooth="yes"/>
      <point x="671" y="606" type="line" smooth="yes"/>
      <point x="604" y="606"/>
      <point x="548" y="541"/>
      <point x="495" y="406" type="curve"/>
      <point x="503" y="443"/>
      <point x="508" y="476"/>
      <point x="508" y="506" type="curve" smooth="yes"/>
      <point x="508" y="580"/>
      <point x="481" y="629"/>
      <point x="424" y="629" type="curve" smooth="yes"/>
      <point x="309" y="626"/>
      <point x="261" y="486"/>
      <point x="217" y="366" type="curve"/>
      <point x="228" y="409"/>
      <point x="237" y="456"/>
      <point x="237" y="498" type="curve" smooth="yes"/>
      <point x="237" y="565"/>
      <point x="214" y="621"/>
      <point x="140" y="621" type="curve" smooth="yes"/>
      <point x="63" y="621"/>
      <point x="7" y="551"/>
      <point x="7" y="454" type="curve" smooth="yes"/>
      <point x="7" y="433"/>
      <point x="20" y="422"/>
      <point x="33" y="422" type="curve" smooth="yes"/>
      <point x="44" y="422"/>
      <point x="55" y="431"/>
      <point x="55" y="447" type="curve" smooth="yes"/>
      <point x="55" y="520"/>
      <point x="90" y="575"/>
    </contour>
  </outline>
</glyph>
<glyph name="R" format="1">
  <advance width="697"/>
  <unicode hex="0052"/>
  <outline>
    <contour>
      <point x="462" y="658" type="move" name="top"/>
    </contour>
    <contour>
      <point x="483" y="338" type="line" smooth="yes"/>
      <point x="557" y="338"/>
      <point x="674" y="393"/>
      <point x="674" y="510" type="curve" smooth="yes"/>
      <point x="674" y="621"/>
      <point x="569" y="696"/>
      <point x="415" y="697" type="curve" smooth="yes"/>
      <point x="236" y="697"/>
      <point x="70" y="534"/>
      <point x="70" y="225" type="curve" smooth="yes"/>
      <point x="70" y="-1"/>
      <point x="123" y="-119"/>
      <point x="218" y="-119" type="curve" smooth="yes"/>
      <point x="219" y="-119" type="line" smooth="yes"/>
      <point x="320.766" y="-119"/>
      <point x="340.533" y="-21.3816"/>
      <point x="376.678" y="330.102" type="curve" smooth="yes"/>
      <point x="380.673" y="330.035"/>
      <point x="384.78" y="330"/>
      <point x="389" y="330" type="curve" smooth="yes"/>
      <point x="402" y="330"/>
      <point x="417" y="330"/>
      <point x="433" y="331" type="curve"/>
      <point x="495" y="-9"/>
      <point x="612" y="-137"/>
      <point x="712" y="-148" type="curve" smooth="yes"/>
      <point x="719" y="-149"/>
      <point x="726" y="-150"/>
      <point x="734" y="-150" type="curve" smooth="yes"/>
      <point x="765" y="-150"/>
      <point x="800" y="-139"/>
      <point x="838" y="-96" type="curve" smooth="yes"/>
      <point x="844" y="-90"/>
      <point x="846" y="-85"/>
      <point x="846" y="-80" type="curve" smooth="yes"/>
      <point x="846" y="-72"/>
      <point x="837" y="-59"/>
      <point x="827" y="-59" type="curve" smooth="yes"/>
      <point x="820" y="-59"/>
      <point x="814" y="-64"/>
      <point x="809" y="-69" type="curve" smooth="yes"/>
      <point x="792" y="-86"/>
      <point x="768" y="-97"/>
      <point x="745" y="-97" type="curve" smooth="yes"/>
      <point x="741" y="-97"/>
      <point x="737" y="-97"/>
      <point x="734" y="-96" type="curve" smooth="yes"/>
      <point x="695" y="-91"/>
      <point x="572" y="-67"/>
      <point x="481" y="338" type="curve"/>
    </contour>
    <contour>
      <point x="317.431" y="334.454" type="curve"/>
      <point x="284.841" y="137.568"/>
      <point x="295.441" y="-66"/>
      <point x="222" y="-66" type="curve" smooth="yes"/>
      <point x="166" y="-66"/>
      <point x="127" y="11"/>
      <point x="127" y="225" type="curve" smooth="yes"/>
      <point x="127" y="446"/>
      <point x="231" y="639"/>
      <point x="416" y="639" type="curve" smooth="yes"/>
      <point x="563" y="639"/>
      <point x="616" y="579"/>
      <point x="616" y="503" type="curve" smooth="yes"/>
      <point x="616" y="497" type="line" smooth="yes"/>
      <point x="616" y="438"/>
      <point x="569" y="383"/>
      <point x="393" y="383" type="curve" smooth="yes"/>
      <point x="385.187" y="383" type="line"/>
      <point x="400.2" y="440.502"/>
      <point x="429" y="466.923"/>
      <point x="429" y="481" type="curve" smooth="yes"/>
      <point x="429" y="489"/>
      <point x="417" y="496"/>
      <point x="401" y="496" type="curve" smooth="yes"/>
      <point x="358.779" y="496"/>
      <point x="341.316" y="454.219"/>
      <point x="326.834" y="384.95" type="curve"/>
      <point x="306.117" y="386.701"/>
      <point x="289.76" y="389"/>
      <point x="278" y="389" type="curve" smooth="yes"/>
      <point x="271" y="389" type="line" smooth="yes"/>
      <point x="258" y="389"/>
      <point x="250" y="385"/>
      <point x="250" y="373" type="curve" smooth="yes"/>
      <point x="250" y="357.127"/>
      <point x="268.22" y="341.774"/>
    </contour>
  </outline>
</glyph>
<glyph name="S" format="1">
  <advance width="561"/>
  <unicode hex="0053"/>
  <outline>
    <contour>
      <point x="382" y="658" type="move" name="top"/>
    </contour>
    <contour>
      <point x="272" y="-89" type="move" name="bot"/>
    </contour>
    <contour>
      <point x="91" y="101" type="curve" smooth="yes"/>
      <point x="91" y="120"/>
      <point x="80" y="136"/>
      <point x="63" y="136" type="curve" smooth="yes"/>
      <point x="49" y="136"/>
      <point x="33" y="122"/>
      <point x="28" y="90" type="curve" smooth="yes"/>
      <point x="26" y="80"/>
      <point x="26" y="71"/>
      <point x="26" y="62" type="curve" smooth="yes"/>
      <point x="26" y="-55"/>
      <point x="154" y="-114"/>
      <point x="269" y="-114" type="curve" smooth="yes"/>
      <point x="419" y="-114"/>
      <point x="527" y="-36"/>
      <point x="527" y="80" type="curve" smooth="yes"/>
      <point x="527" y="187"/>
      <point x="446" y="225"/>
      <point x="335" y="290" type="curve"/>
      <point x="205" y="375"/>
      <point x="163" y="390"/>
      <point x="163" y="468" type="curve" smooth="yes"/>
      <point x="163" y="536"/>
      <point x="271" y="583"/>
      <point x="351" y="583" type="curve" smooth="yes"/>
      <point x="426" y="583"/>
      <point x="497" y="551"/>
      <point x="497" y="487" type="curve" smooth="yes"/>
      <point x="497" y="450"/>
      <point x="481" y="424"/>
      <point x="464" y="403" type="curve" smooth="yes"/>
      <point x="459" y="397"/>
      <point x="457" y="391"/>
      <point x="457" y="386" type="curve" smooth="yes"/>
      <point x="457" y="375"/>
      <point x="466" y="366"/>
      <point x="478" y="366" type="curve" smooth="yes"/>
      <point x="488" y="366"/>
      <point x="500" y="372"/>
      <point x="513" y="387" type="curve" smooth="yes"/>
      <point x="531" y="407"/>
      <point x="549" y="442"/>
      <point x="549" y="484" type="curve" smooth="yes"/>
      <point x="549" y="577"/>
      <point x="467" y="632"/>
      <point x="353" y="632" type="curve" smooth="yes"/>
      <point x="231" y="632"/>
      <point x="104" y="566"/>
      <point x="104" y="459" type="curve" smooth="yes"/>
      <point x="104" y="362"/>
      <point x="196" y="313"/>
      <point x="285" y="257" type="curve" smooth="yes"/>
      <point x="371" y="203"/>
      <point x="475" y="170"/>
      <point x="475" y="73" type="curve" smooth="yes"/>
      <point x="475" y="-3"/>
      <point x="406" y="-66"/>
      <point x="275" y="-66" type="curve" smooth="yes"/>
      <point x="173" y="-66"/>
      <point x="87" y="-22"/>
      <point x="87" y="61" type="curve" smooth="yes"/>
      <point x="87" y="73"/>
      <point x="91" y="89"/>
    </contour>
  </outline>
</glyph>
<glyph name="V" format="1">
  <advance width="580"/>
  <unicode hex="0056"/>
  <outline>
    <contour>
      <point x="507" y="284" type="curve" smooth="yes"/>
      <point x="458" y="188"/>
      <point x="374" y="46"/>
      <point x="282" y="35" type="curve" smooth="yes"/>
      <point x="274" y="35" type="line" smooth="yes"/>
      <point x="232" y="35"/>
      <point x="204" y="71"/>
      <point x="204" y="164" type="curve" smooth="yes"/>
      <point x="204" y="347"/>
      <point x="305" y="480"/>
      <point x="315" y="494" type="curve" smooth="yes"/>
      <point x="316" y="495"/>
      <point x="316" y="496"/>
      <point x="316" y="497" type="curve" smooth="yes"/>
      <point x="316" y="503"/>
      <point x="306" y="514"/>
      <point x="292" y="514" type="curve" smooth="yes"/>
      <point x="285.078" y="514"/>
      <point x="276.571" y="511.228"/>
      <point x="267.478" y="503.939" type="curve" smooth="yes"/>
      <point x="266.582" y="503.845"/>
      <point x="265.607" y="503.607"/>
      <point x="265" y="503" type="curve" smooth="yes"/>
      <point x="38" y="366" type="line" smooth="yes"/>
      <point x="30" y="361"/>
      <point x="27" y="353"/>
      <point x="27" y="345" type="curve" smooth="yes"/>
      <point x="27" y="334"/>
      <point x="33" y="324"/>
      <point x="41" y="324" type="curve" smooth="yes"/>
      <point x="44" y="324"/>
      <point x="46" y="325"/>
      <point x="49" y="327" type="curve" smooth="yes"/>
      <point x="218.11" y="431.863" type="line"/>
      <point x="187.63" y="375.37"/>
      <point x="149" y="282.572"/>
      <point x="149" y="170" type="curve" smooth="yes"/>
      <point x="149" y="44"/>
      <point x="188" y="-20"/>
      <point x="268" y="-20" type="curve"/>
      <point x="377" y="-14"/>
      <point x="461" y="108"/>
      <point x="546" y="260" type="curve" smooth="yes"/>
      <point x="570.585" y="303.931"/>
      <point x="589.16" y="345.1"/>
      <point x="602.576" y="383.116" type="curve"/>
      <point x="651.748" y="388.359"/>
      <point x="710.669" y="412.534"/>
      <point x="778" y="465" type="curve" smooth="yes"/>
      <point x="785" y="470"/>
      <point x="787" y="477"/>
      <point x="787" y="483" type="curve" smooth="yes"/>
      <point x="787" y="492"/>
      <point x="781" y="500"/>
      <point x="773" y="500" type="curve" smooth="yes"/>
      <point x="770" y="500"/>
      <point x="767" y="499"/>
      <point x="764" y="497" type="curve" smooth="yes"/>
      <point x="706.676" y="455.823"/>
      <point x="657.174" y="434.855"/>
      <point x="616.547" y="428.305" type="curve"/>
      <point x="626.531" y="466.165"/>
      <point x="631" y="500.224"/>
      <point x="631" y="530" type="curve" smooth="yes"/>
      <point x="631" y="613"/>
      <point x="596" y="662"/>
      <point x="547" y="664" type="curve" smooth="yes"/>
      <point x="463" y="664"/>
      <point x="424" y="606"/>
      <point x="424" y="542" type="curve" smooth="yes"/>
      <point x="424" y="473.941"/>
      <point x="468.909" y="399.466"/>
      <point x="551.546" y="384.646" type="curve"/>
      <point x="540.661" y="354.57"/>
      <point x="526.077" y="321.095"/>
    </contour>
    <contour>
      <point x="565.387" y="427.926" type="curve"/>
      <point x="501.316" y="438.766"/>
      <point x="470" y="493.299"/>
      <point x="470" y="539" type="curve" smooth="yes"/>
      <point x="470" y="576"/>
      <point x="490" y="608"/>
      <point x="531" y="608" type="curve" smooth="yes"/>
      <point x="552" y="608"/>
      <point x="579" y="580"/>
      <point x="579" y="517" type="curve" smooth="yes"/>
      <point x="579" y="492.714"/>
      <point x="575.074" y="463.192"/>
    </contour>
  </outline>
</glyph>
<glyph name="Y" format="1">
  <advance width="523"/>
  <unicode hex="0059"/>
  <outline>
    <contour>
      <point x="392" y="658" type="move" name="top"/>
    </contour>
    <contour>
      <point x="461.242" y="141.05" type="curve"/>
      <point x="548" y="513" type="line" smooth="yes"/>
      <point x="551" y="526"/>
      <point x="553" y="536"/>
      <point x="553" y="545" type="curve" smooth="yes"/>
      <point x="553" y="562"/>
      <point x="545" y="571"/>
      <point x="521" y="571" type="curve" smooth="yes"/>
      <point x="510" y="571"/>
      <point x="497" y="560"/>
      <point x="491" y="530" type="curve" smooth="yes"/>
      <point x="418" y="207" type="line"/>
      <point x="358" y="129"/>
      <point x="274" y="74"/>
      <point x="209" y="74" type="curve" smooth="yes"/>
      <point x="154" y="74"/>
      <point x="114" y="113"/>
      <point x="114" y="212" type="curve" smooth="yes"/>
      <point x="114" y="290"/>
      <point x="140" y="404"/>
      <point x="203" y="565" type="curve" smooth="yes"/>
      <point x="204" y="567"/>
      <point x="204" y="569"/>
      <point x="204" y="571" type="curve" smooth="yes"/>
      <point x="204" y="580"/>
      <point x="194" y="582"/>
      <point x="183" y="582" type="curve" smooth="yes"/>
      <point x="163" y="582"/>
      <point x="154" y="569"/>
      <point x="147" y="556" type="curve" smooth="yes"/>
      <point x="83" y="430"/>
      <point x="55" y="314"/>
      <point x="55" y="222" type="curve" smooth="yes"/>
      <point x="55" y="96"/>
      <point x="107" y="15"/>
      <point x="190" y="15" type="curve" smooth="yes"/>
      <point x="251" y="15"/>
      <point x="327" y="59"/>
      <point x="412" y="160" type="curve"/>
      <point x="405.565" y="131.949"/>
      <point x="398.919" y="105.132"/>
      <point x="392.127" y="79.5829" type="curve"/>
      <point x="268.106" y="-35.7211"/>
      <point x="146" y="-178.119"/>
      <point x="146" y="-274" type="curve" smooth="yes"/>
      <point x="146" y="-307"/>
      <point x="165" y="-332"/>
      <point x="200" y="-332" type="curve" smooth="yes"/>
      <point x="316.113" y="-332"/>
      <point x="372.305" y="-198.115"/>
      <point x="446.486" y="81.4328" type="curve"/>
      <point x="497.711" y="127.601"/>
      <point x="552.364" y="171.997"/>
      <point x="606" y="210" type="curve" smooth="yes"/>
      <point x="609" y="212"/>
      <point x="610" y="216"/>
      <point x="610" y="220" type="curve" smooth="yes"/>
      <point x="610" y="230"/>
      <point x="603" y="244"/>
      <point x="596" y="244" type="curve" smooth="yes"/>
      <point x="595" y="244"/>
      <point x="594" y="244"/>
      <point x="593" y="243" type="curve" smooth="yes"/>
      <point x="558.58" y="219.793"/>
      <point x="511.718" y="184.007"/>
    </contour>
    <contour>
      <point x="372.815" y="11.4704" type="curve"/>
      <point x="316.711" y="-174.074"/>
      <point x="255.424" y="-276"/>
      <point x="224" y="-276" type="curve" smooth="yes"/>
      <point x="208" y="-276"/>
      <point x="194" y="-267"/>
      <point x="194" y="-241" type="curve" smooth="yes"/>
      <point x="194" y="-192.741"/>
      <point x="269.607" y="-91.9477"/>
    </contour>
  </outline>
</glyph>
<glyph name="m" format="1">
  <advance width="487"/>
  <unicode hex="006D"/>
  <outline>
    <contour>
      <point x="332" y="333" type="move" name="top"/>
    </contour>
    <contour>
      <point x="371" y="59" type="curve" smooth="yes"/>
      <point x="371" y="15"/>
      <point x="401" y="-3"/>
      <point x="435" y="-3" type="curve" smooth="yes"/>
      <point x="477" y="-3"/>
      <point x="530" y="26"/>
      <point x="578" y="90" type="curve" smooth="yes"/>
      <point x="580" y="92"/>
      <point x="581" y="95"/>
      <point x="581" y="97" type="curve" smooth="yes"/>
      <point x="581" y="106"/>
      <point x="568" y="116"/>
      <point x="559" y="116" type="curve" smooth="yes"/>
      <point x="556" y="116"/>
      <point x="555" y="115"/>
      <point x="553" y="113" type="curve" smooth="yes"/>
      <point x="529" y="86"/>
      <point x="482" y="41"/>
      <point x="444" y="41" type="curve" smooth="yes"/>
      <point x="442" y="41" type="line" smooth="yes"/>
      <point x="426" y="41"/>
      <point x="420" y="53"/>
      <point x="420" y="70" type="curve" smooth="yes"/>
      <point x="420" y="122"/>
      <point x="474" y="228"/>
      <point x="474" y="283" type="curve" smooth="yes"/>
      <point x="474" y="307"/>
      <point x="461" y="322"/>
      <point x="440" y="322" type="curve" smooth="yes"/>
      <point x="396" y="322"/>
      <point x="320" y="257"/>
      <point x="260" y="82" type="curve"/>
      <point x="279" y="168"/>
      <point x="301" y="239"/>
      <point x="301" y="280" type="curve" smooth="yes"/>
      <point x="301" y="302"/>
      <point x="294" y="317"/>
      <point x="273" y="317" type="curve" smooth="yes"/>
      <point x="235" y="317"/>
      <point x="162" y="253"/>
      <point x="87" y="65" type="curve"/>
      <point x="112" y="199"/>
      <point x="128" y="272"/>
      <point x="137" y="303" type="curve" smooth="yes"/>
      <point x="138" y="307"/>
      <point x="139" y="310"/>
      <point x="139" y="313" type="curve" smooth="yes"/>
      <point x="139" y="325"/>
      <point x="130" y="329"/>
      <point x="124" y="330" type="curve" smooth="yes"/>
      <point x="112" y="330"/>
      <point x="97" y="323"/>
      <point x="86" y="284" type="curve" smooth="yes"/>
      <point x="76" y="249"/>
      <point x="59" y="183"/>
      <point x="42" y="55" type="curve" smooth="yes"/>
      <point x="41" y="48"/>
      <point x="41" y="42"/>
      <point x="41" y="36" type="curve" smooth="yes"/>
      <point x="41" y="14"/>
      <point x="47" y="-3"/>
      <point x="67" y="-3" type="curve" smooth="yes"/>
      <point x="94" y="-3"/>
      <point x="98" y="2"/>
      <point x="124" y="63" type="curve" smooth="yes"/>
      <point x="158" y="148"/>
      <point x="231" y="263"/>
      <point x="249" y="263" type="curve" smooth="yes"/>
      <point x="252" y="263"/>
      <point x="252" y="261"/>
      <point x="252" y="257" type="curve" smooth="yes"/>
      <point x="252" y="230"/>
      <point x="218" y="95"/>
      <point x="214" y="32" type="curve" smooth="yes"/>
      <point x="214" y="27" type="line" smooth="yes"/>
      <point x="214" y="2"/>
      <point x="232" y="3"/>
      <point x="237" y="-3" type="curve"/>
      <point x="246" y="-3"/>
      <point x="261" y="-2"/>
      <point x="277" y="40" type="curve" smooth="yes"/>
      <point x="311" y="124"/>
      <point x="389" y="262"/>
      <point x="412" y="262" type="curve" smooth="yes"/>
      <point x="417" y="262"/>
      <point x="419" y="256"/>
      <point x="419" y="251" type="curve" smooth="yes"/>
      <point x="419" y="219"/>
      <point x="371" y="127"/>
    </contour>
  </outline>
</glyph>
<glyph name="p" format="1">
  <advance width="319"/>
  <unicode hex="0070"/>
  <outline>
    <contour>
      <point x="222" y="333" type="move" name="top"/>
    </contour>
    <contour>
      <point x="148" y="52" type="curve" smooth="yes"/>
      <point x="129" y="52"/>
      <point x="105" y="55"/>
      <point x="78" y="78" type="curve"/>
      <point x="83" y="111"/>
      <point x="101" y="284"/>
      <point x="195" y="284" type="curve" smooth="yes"/>
      <point x="218.697" y="284"/>
      <point x="233.684" y="261.079"/>
      <point x="240.893" y="232.93" type="curve"/>
      <point x="237.391" y="232.344"/>
      <point x="232.007" y="229.918"/>
      <point x="225" y="221" type="curve" smooth="yes"/>
      <point x="217" y="210"/>
      <point x="214" y="198"/>
      <point x="214" y="187" type="curve" smooth="yes"/>
      <point x="214" y="180"/>
      <point x="215" y="173"/>
      <point x="217" y="167" type="curve" smooth="yes"/>
      <point x="220.58" y="153.191"/>
      <point x="226.514" y="141.999"/>
      <point x="237.21" y="134.358" type="curve"/>
      <point x="223.004" y="89.3887"/>
      <point x="192.07" y="52"/>
    </contour>
    <contour>
      <point x="294" y="210" type="curve" smooth="yes"/>
      <point x="294" y="273"/>
      <point x="271" y="328"/>
      <point x="190" y="328" type="curve" smooth="yes"/>
      <point x="76" y="328"/>
      <point x="40" y="173"/>
      <point x="22" y="86" type="curve" smooth="yes"/>
      <point x="18" y="62"/>
      <point x="0" y="-63"/>
      <point x="-7" y="-152" type="curve"/>
      <point x="-7" y="-158" type="line" smooth="yes"/>
      <point x="-7" y="-175"/>
      <point x="-6" y="-223"/>
      <point x="3" y="-223" type="curve" smooth="yes"/>
      <point x="19" y="-223"/>
      <point x="51" y="-213"/>
      <point x="51" y="-200" type="curve" smooth="yes"/>
      <point x="51" y="-186"/>
      <point x="50" y="-172"/>
      <point x="50" y="-159" type="curve" smooth="yes"/>
      <point x="50" y="-78"/>
      <point x="58" y="-6"/>
      <point x="69" y="32" type="curve"/>
      <point x="88" y="13"/>
      <point x="125" y="0"/>
      <point x="143" y="0" type="curve" smooth="yes"/>
      <point x="207.913" y="0"/>
      <point x="255.775" y="57.0018"/>
      <point x="278.763" y="123.057" type="curve" smooth="yes"/>
      <point x="280.146" y="123.019"/>
      <point x="281.558" y="123"/>
      <point x="283" y="123" type="curve" smooth="yes"/>
      <point x="318" y="123"/>
      <point x="383" y="150"/>
      <point x="413" y="190" type="curve" smooth="yes"/>
      <point x="418" y="198"/>
      <point x="423" y="207"/>
      <point x="423" y="218" type="curve" smooth="yes"/>
      <point x="423" y="229"/>
      <point x="420" y="232"/>
      <point x="416" y="232" type="curve" smooth="yes"/>
      <point x="410" y="232"/>
      <point x="401" y="224"/>
      <point x="394" y="218" type="curve" smooth="yes"/>
      <point x="355.176" y="185.97"/>
      <point x="309.757" y="176.55"/>
      <point x="291.576" y="176.024" type="curve"/>
      <point x="293.179" y="187.531"/>
      <point x="294" y="198.935"/>
    </contour>
  </outline>
</glyph>
<glyph name="z" format="1">
  <advance width="254"/>
  <unicode hex="007A"/>
  <outline>
    <contour>
      <point x="172" y="333" type="move" name="top"/>
    </contour>
    <contour>
      <point x="299" y="66" type="curve" smooth="yes"/>
      <point x="305" y="71"/>
      <point x="307" y="77"/>
      <point x="307" y="83" type="curve" smooth="yes"/>
      <point x="307" y="94"/>
      <point x="300" y="106"/>
      <point x="295" y="106" type="curve" smooth="yes"/>
      <point x="294" y="106"/>
      <point x="294" y="105"/>
      <point x="293" y="105" type="curve" smooth="yes"/>
      <point x="218" y="60"/>
      <point x="153" y="41"/>
      <point x="111" y="41" type="curve" smooth="yes"/>
      <point x="78" y="41"/>
      <point x="60" y="53"/>
      <point x="61" y="73" type="curve"/>
      <point x="88" y="106"/>
      <point x="208" y="219"/>
      <point x="237" y="256" type="curve" smooth="yes"/>
      <point x="248" y="269"/>
      <point x="251" y="279"/>
      <point x="251" y="292" type="curve" smooth="yes"/>
      <point x="251" y="310"/>
      <point x="238" y="314"/>
      <point x="227" y="314" type="curve" smooth="yes"/>
      <point x="210" y="314"/>
      <point x="95" y="313"/>
      <point x="36" y="313" type="curve" smooth="yes"/>
      <point x="25" y="313"/>
      <point x="21" y="306"/>
      <point x="21" y="298" type="curve" smooth="yes"/>
      <point x="21" y="286"/>
      <point x="29" y="271"/>
      <point x="36" y="271" type="curve" smooth="yes"/>
      <point x="65" y="271"/>
      <point x="125" y="275"/>
      <point x="191" y="277" type="curve"/>
      <point x="42" y="124" type="line" smooth="yes"/>
      <point x="27" y="108"/>
      <point x="9" y="91"/>
      <point x="9" y="62" type="curve" smooth="yes"/>
      <point x="9" y="22"/>
      <point x="49" y="-5"/>
      <point x="109" y="-5" type="curve" smooth="yes"/>
      <point x="162" y="-5"/>
      <point x="230" y="16"/>
    </contour>
  </outline>
</glyph>
<glyph name="braceleft" format="1">
  <advance width="394"/>
  <unicode hex="007B"/>
  <outline>
    <contour>
      <point x="116" y="324" type="curve" smooth="yes"/>
      <point x="109" y="324"/>
      <point x="102" y="325"/>
      <point x="95" y="325" type="curve" smooth="yes"/>
      <point x="78" y="325"/>
      <point x="67" y="317"/>
      <point x="67" y="298" type="curve" smooth="yes"/>
      <point x="67" y="284"/>
      <point x="73" y="273"/>
      <point x="85" y="271" type="curve" smooth="yes"/>
      <point x="160" y="264"/>
      <point x="171" y="244"/>
      <point x="171" y="203" type="curve" smooth="yes"/>
      <point x="171" y="145"/>
      <point x="156" y="93"/>
      <point x="156" y="45" type="curve" smooth="yes"/>
      <point x="156" y="-31"/>
      <point x="187" y="-72"/>
      <point x="281" y="-72" type="curve" smooth="yes"/>
      <point x="296" y="-72"/>
      <point x="312" y="-71"/>
      <point x="330" y="-69" type="curve" smooth="yes"/>
      <point x="338" y="-68"/>
      <point x="341" y="-61"/>
      <point x="341" y="-53" type="curve" smooth="yes"/>
      <point x="341" y="-44"/>
      <point x="336" y="-34"/>
      <point x="326" y="-34" type="curve" smooth="yes"/>
      <point x="317" y="-34"/>
      <point x="306" y="-35"/>
      <point x="298" y="-35" type="curve" smooth="yes"/>
      <point x="214" y="-35"/>
      <point x="204" y="-6"/>
      <point x="204" y="52" type="curve" smooth="yes"/>
      <point x="204" y="104"/>
      <point x="219" y="160"/>
      <point x="219" y="211" type="curve" smooth="yes"/>
      <point x="219" y="258.48"/>
      <point x="188.503" y="285.094"/>
      <point x="144.765" y="294.436" type="curve"/>
      <point x="194.613" y="301.013"/>
      <point x="234.375" y="326.813"/>
      <point x="238" y="383" type="curve" smooth="yes"/>
      <point x="247" y="554"/>
      <point x="257" y="605"/>
      <point x="321" y="612" type="curve" smooth="yes"/>
      <point x="326" y="613"/>
      <point x="330" y="613"/>
      <point x="335" y="613" type="curve" smooth="yes"/>
      <point x="364" y="613"/>
      <point x="393" y="603"/>
      <point x="410" y="597" type="curve" smooth="yes"/>
      <point x="413" y="596"/>
      <point x="415" y="596"/>
      <point x="417" y="596" type="curve" smooth="yes"/>
      <point x="427" y="596"/>
      <point x="432" y="605"/>
      <point x="432" y="613" type="curve" smooth="yes"/>
      <point x="432" y="619"/>
      <point x="430" y="624"/>
      <point x="425" y="626" type="curve" smooth="yes"/>
      <point x="403" y="639"/>
      <point x="367" y="651"/>
      <point x="328" y="651" type="curve" smooth="yes"/>
      <point x="222" y="651"/>
      <point x="202" y="582"/>
      <point x="192" y="404" type="curve" smooth="yes"/>
      <point x="188" y="352"/>
      <point x="173" y="324"/>
    </contour>
  </outline>
</glyph>
<glyph name="yen" format="1">
  <advance width="562"/>
  <unicode hex="00A5"/>
  <outline>
    <contour>
      <point x="278" y="6" type="curve" smooth="yes"/>
      <point x="322" y="143" type="line"/>
      <point x="421" y="143" type="line" smooth="yes"/>
      <point x="451" y="143"/>
      <point x="465" y="145"/>
      <point x="465" y="165" type="curve" smooth="yes"/>
      <point x="465" y="175"/>
      <point x="456" y="175"/>
      <point x="437" y="175" type="curve" smooth="yes"/>
      <point x="331" y="175" type="line"/>
      <point x="350" y="230" type="line"/>
      <point x="439" y="230" type="line" smooth="yes"/>
      <point x="469" y="230"/>
      <point x="477" y="231"/>
      <point x="477" y="252" type="curve" smooth="yes"/>
      <point x="477" y="263"/>
      <point x="475" y="263"/>
      <point x="457" y="263" type="curve" smooth="yes"/>
      <point x="378" y="263" type="line"/>
      <point x="414" y="312"/>
      <point x="505" y="445"/>
      <point x="557" y="513" type="curve" smooth="yes"/>
      <point x="563" y="522"/>
      <point x="566" y="530"/>
      <point x="566" y="537" type="curve" smooth="yes"/>
      <point x="566" y="550"/>
      <point x="556" y="558"/>
      <point x="545" y="558" type="curve" smooth="yes"/>
      <point x="536" y="558"/>
      <point x="527" y="553"/>
      <point x="519" y="542" type="curve" smooth="yes"/>
      <point x="456" y="446"/>
      <point x="348" y="294"/>
      <point x="332" y="264" type="curve"/>
      <point x="326" y="288"/>
      <point x="263" y="512"/>
      <point x="253" y="547" type="curve" smooth="yes"/>
      <point x="248" y="565"/>
      <point x="238" y="573"/>
      <point x="228" y="573" type="curve" smooth="yes"/>
      <point x="217" y="573"/>
      <point x="206" y="562"/>
      <point x="206" y="544" type="curve" smooth="yes"/>
      <point x="206" y="539"/>
      <point x="206" y="534"/>
      <point x="208" y="529" type="curve" smooth="yes"/>
      <point x="290" y="263" type="line"/>
      <point x="217" y="263" type="line" smooth="yes"/>
      <point x="194" y="263"/>
      <point x="185" y="262"/>
      <point x="185" y="250" type="curve" smooth="yes"/>
      <point x="185" y="233"/>
      <point x="194" y="230"/>
      <point x="217" y="230" type="curve" smooth="yes"/>
      <point x="296" y="230" type="line"/>
      <point x="277" y="175" type="line"/>
      <point x="201" y="175" type="line" smooth="yes"/>
      <point x="179" y="175"/>
      <point x="171" y="174"/>
      <point x="171" y="162" type="curve" smooth="yes"/>
      <point x="171" y="146"/>
      <point x="180" y="143"/>
      <point x="201" y="143" type="curve" smooth="yes"/>
      <point x="270" y="143" type="line"/>
      <point x="265" y="127"/>
      <point x="237" y="36"/>
      <point x="232" y="22" type="curve" smooth="yes"/>
      <point x="230" y="17"/>
      <point x="229" y="12"/>
      <point x="229" y="8" type="curve" smooth="yes"/>
      <point x="229" y="-7"/>
      <point x="240" y="-14"/>
      <point x="252" y="-14" type="curve" smooth="yes"/>
      <point x="263" y="-14"/>
      <point x="274" y="-8"/>
    </contour>
  </outline>
</glyph>
<glyph name="logicalnot" format="1">
  <advance width="416"/>
  <unicode hex="00AC"/>
  <outline>
    <contour>
      <point x="312" y="84" type="curve" smooth="yes"/>
      <point x="329" y="84"/>
      <point x="337" y="101"/>
      <point x="338" y="121" type="curve" smooth="yes"/>
      <point x="345" y="236" type="line" smooth="yes"/>
      <point x="345" y="248"/>
      <point x="336" y="254"/>
      <point x="321" y="254" type="curve" smooth="yes"/>
      <point x="105" y="254" type="line" smooth="yes"/>
      <point x="84" y="254"/>
      <point x="66" y="244"/>
      <point x="66" y="228" type="curve" smooth="yes"/>
      <point x="66" y="212"/>
      <point x="81" y="206"/>
      <point x="100" y="206" type="curve" smooth="yes"/>
      <point x="295" y="206" type="line"/>
      <point x="290" y="115" type="line" smooth="yes"/>
      <point x="290" y="97"/>
      <point x="297" y="84"/>
    </contour>
  </outline>
</glyph>
<glyph name="acute" format="1">
  <advance width="208"/>
  <unicode hex="00B4"/>
  <outline>
    <contour>
      <point x="54" y="333" type="move" name="_top"/>
    </contour>
    <contour>
      <point x="81" y="422" type="curve" smooth="yes"/>
      <point x="217" y="517" type="line" smooth="yes"/>
      <point x="229" y="525"/>
      <point x="234" y="535"/>
      <point x="234" y="544" type="curve" smooth="yes"/>
      <point x="234" y="559"/>
      <point x="222" y="572"/>
      <point x="207" y="572" type="curve" smooth="yes"/>
      <point x="199" y="572"/>
      <point x="190" y="568"/>
      <point x="183" y="559" type="curve" smooth="yes"/>
      <point x="67" y="439" type="line" smooth="yes"/>
      <point x="64" y="436"/>
      <point x="63" y="432"/>
      <point x="63" y="429" type="curve" smooth="yes"/>
      <point x="63" y="423"/>
      <point x="66" y="419"/>
      <point x="72" y="419" type="curve" smooth="yes"/>
      <point x="75" y="419"/>
      <point x="78" y="420"/>
    </contour>
  </outline>
</glyph>
<glyph name="cedilla" format="1">
  <advance width="404"/>
  <unicode hex="00B8"/>
  <outline>
    <contour>
      <point x="251" y="77" type="move" name="_bot"/>
    </contour>
    <contour>
      <point x="182" y="-122" type="curve" smooth="yes"/>
      <point x="226" y="7" type="line" smooth="yes"/>
      <point x="226" y="8"/>
      <point x="227" y="10"/>
      <point x="227" y="11" type="curve" smooth="yes"/>
      <point x="227" y="15"/>
      <point x="224" y="18"/>
      <point x="220" y="18" type="curve" smooth="yes"/>
      <point x="217" y="18"/>
      <point x="214" y="16"/>
      <point x="211" y="12" type="curve" smooth="yes"/>
      <point x="136" y="-106" type="line" smooth="yes"/>
      <point x="131" y="-114"/>
      <point x="129" y="-121"/>
      <point x="129" y="-127" type="curve" smooth="yes"/>
      <point x="129" y="-141"/>
      <point x="139" y="-150"/>
      <point x="151" y="-150" type="curve" smooth="yes"/>
      <point x="162" y="-150"/>
      <point x="175" y="-142"/>
    </contour>
  </outline>
</glyph>
<glyph name="questiondown" format="1">
  <advance width="441"/>
  <unicode hex="00BF"/>
  <outline>
    <contour>
      <point x="334" y="437" type="curve" smooth="yes"/>
      <point x="369" y="437"/>
      <point x="387" y="458"/>
      <point x="387" y="492" type="curve" smooth="yes"/>
      <point x="387" y="523"/>
      <point x="372" y="537"/>
      <point x="341" y="537" type="curve" smooth="yes"/>
      <point x="306" y="537"/>
      <point x="287" y="517"/>
      <point x="287" y="482" type="curve" smooth="yes"/>
      <point x="287" y="452"/>
      <point x="303" y="437"/>
    </contour>
    <contour>
      <point x="264" y="10" type="curve" smooth="yes"/>
      <point x="309" y="10"/>
      <point x="381" y="39"/>
      <point x="381" y="79" type="curve" smooth="yes"/>
      <point x="381" y="95"/>
      <point x="372" y="108"/>
      <point x="358" y="108" type="curve" smooth="yes"/>
      <point x="352" y="108"/>
      <point x="347" y="105"/>
      <point x="343" y="101" type="curve" smooth="yes"/>
      <point x="328" y="82"/>
      <point x="299" y="55"/>
      <point x="264" y="55" type="curve" smooth="yes"/>
      <point x="223" y="55"/>
      <point x="208" y="83"/>
      <point x="208" y="122" type="curve" smooth="yes"/>
      <point x="208" y="218"/>
      <point x="344" y="243"/>
      <point x="344" y="359" type="curve" smooth="yes"/>
      <point x="344" y="367"/>
      <point x="336" y="371"/>
      <point x="324" y="371" type="curve" smooth="yes"/>
      <point x="312" y="371"/>
      <point x="304" y="359"/>
      <point x="298" y="344" type="curve" smooth="yes"/>
      <point x="292" y="329"/>
      <point x="281" y="316"/>
      <point x="271" y="306" type="curve" smooth="yes"/>
      <point x="211" y="248"/>
      <point x="145" y="223"/>
      <point x="145" y="116" type="curve" smooth="yes"/>
      <point x="145" y="50"/>
      <point x="197" y="10"/>
    </contour>
  </outline>
</glyph>
<glyph name="Oslash" format="1">
  <advance width="633"/>
  <unicode hex="00D8"/>
  <outline>
    <component base="O"/>
    <contour>
      <point x="75" y="-163" type="curve" smooth="yes"/>
      <point x="677" y="718" type="line" smooth="yes"/>
      <point x="681" y="724"/>
      <point x="683" y="729"/>
      <point x="683" y="734" type="curve" smooth="yes"/>
      <point x="683" y="746"/>
      <point x="672" y="753"/>
      <point x="661" y="753" type="curve" smooth="yes"/>
      <point x="653" y="753"/>
      <point x="646" y="750"/>
      <point x="642" y="741" type="curve" smooth="yes"/>
      <point x="42" y="-142" type="line" smooth="yes"/>
      <point x="35" y="-154"/>
      <point x="33" y="-163"/>
      <point x="33" y="-170" type="curve" smooth="yes"/>
      <point x="33" y="-179"/>
      <point x="38" y="-184"/>
      <point x="45" y="-184" type="curve" smooth="yes"/>
      <point x="54" y="-184"/>
      <point x="66" y="-177"/>
    </contour>
  </outline>
</glyph>
<glyph name="ae" format="1">
  <advance width="480"/>
  <unicode hex="00E6"/>
  <outline>
    <contour>
      <point x="327" y="333" type="move" name="top"/>
    </contour>
    <contour>
      <point x="417" y="0" type="move" name="ogonek"/>
    </contour>
    <contour>
      <point x="287" y="109" type="curve"/>
      <point x="283" y="123"/>
      <point x="281" y="137"/>
      <point x="281" y="151" type="curve" smooth="yes"/>
      <point x="281" y="227"/>
      <point x="333" y="289"/>
      <point x="384" y="289" type="curve" smooth="yes"/>
      <point x="402" y="289"/>
      <point x="423" y="276"/>
      <point x="423" y="249" type="curve" smooth="yes"/>
      <point x="423" y="206"/>
      <point x="373" y="165"/>
    </contour>
    <contour>
      <point x="139" y="36" type="curve" smooth="yes"/>
      <point x="100" y="36"/>
      <point x="83" y="55"/>
      <point x="83" y="89" type="curve" smooth="yes"/>
      <point x="83" y="159"/>
      <point x="143" y="292"/>
      <point x="229" y="292" type="curve" smooth="yes"/>
      <point x="246" y="292"/>
      <point x="266" y="287"/>
      <point x="271" y="275" type="curve"/>
      <point x="254" y="254"/>
      <point x="230" y="209"/>
      <point x="230" y="151" type="curve" smooth="yes"/>
      <point x="230" y="129"/>
      <point x="234" y="105"/>
      <point x="243" y="81" type="curve"/>
      <point x="243" y="81"/>
      <point x="188" y="36"/>
    </contour>
    <contour>
      <point x="367" y="-6" type="curve" smooth="yes"/>
      <point x="453" y="-6"/>
      <point x="522" y="51"/>
      <point x="552" y="91" type="curve" smooth="yes"/>
      <point x="555" y="96"/>
      <point x="556" y="100"/>
      <point x="556" y="104" type="curve" smooth="yes"/>
      <point x="556" y="115"/>
      <point x="547" y="123"/>
      <point x="541" y="123" type="curve" smooth="yes"/>
      <point x="539" y="123"/>
      <point x="538" y="122"/>
      <point x="537" y="121" type="curve" smooth="yes"/>
      <point x="480" y="66"/>
      <point x="426" y="36"/>
      <point x="375" y="36" type="curve" smooth="yes"/>
      <point x="336" y="36"/>
      <point x="314" y="51"/>
      <point x="299" y="74" type="curve"/>
      <point x="393" y="131"/>
      <point x="468" y="184"/>
      <point x="468" y="255" type="curve" smooth="yes"/>
      <point x="468" y="302"/>
      <point x="427" y="331"/>
      <point x="380" y="331" type="curve" smooth="yes"/>
      <point x="349" y="331"/>
      <point x="320" y="319"/>
      <point x="296" y="300" type="curve"/>
      <point x="283" y="315"/>
      <point x="256" y="332"/>
      <point x="229" y="332" type="curve" smooth="yes"/>
      <point x="116" y="332"/>
      <point x="35" y="187"/>
      <point x="35" y="87" type="curve" smooth="yes"/>
      <point x="35" y="0"/>
      <point x="102" y="-7"/>
      <point x="131" y="-7" type="curve" smooth="yes"/>
      <point x="194" y="-7"/>
      <point x="258" y="46"/>
      <point x="258" y="46" type="curve"/>
      <point x="284" y="13"/>
      <point x="315" y="-6"/>
    </contour>
  </outline>
</glyph>
<glyph name="eth" format="1">
  <advance width="354"/>
  <unicode hex="00F0"/>
  <outline>
    <contour>
      <point x="182" y="43" type="curve" smooth="yes"/>
      <point x="176" y="42"/>
      <point x="170" y="42"/>
      <point x="165" y="42" type="curve" smooth="yes"/>
      <point x="107" y="42"/>
      <point x="74" y="80"/>
      <point x="74" y="141" type="curve" smooth="yes"/>
      <point x="74" y="243"/>
      <point x="149" y="296"/>
      <point x="223" y="297" type="curve" smooth="yes"/>
      <point x="250" y="297"/>
      <point x="278" y="290"/>
      <point x="301" y="276" type="curve"/>
      <point x="302" y="269"/>
      <point x="302" y="262"/>
      <point x="302" y="255" type="curve" smooth="yes"/>
      <point x="302" y="172"/>
      <point x="260" y="52"/>
    </contour>
    <contour>
      <point x="306" y="312" type="curve"/>
      <point x="283" y="331"/>
      <point x="252" y="340"/>
      <point x="217" y="340" type="curve" smooth="yes"/>
      <point x="127" y="340"/>
      <point x="22" y="272"/>
      <point x="22" y="142" type="curve" smooth="yes"/>
      <point x="22" y="57"/>
      <point x="79" y="-1"/>
      <point x="160" y="-1" type="curve" smooth="yes"/>
      <point x="165" y="-1"/>
      <point x="169" y="0"/>
      <point x="174" y="0" type="curve" smooth="yes"/>
      <point x="296" y="10"/>
      <point x="357" y="131"/>
      <point x="357" y="311" type="curve" smooth="yes"/>
      <point x="357" y="373"/>
      <point x="348" y="424"/>
      <point x="329" y="460" type="curve"/>
      <point x="397" y="492" type="line" smooth="yes"/>
      <point x="407" y="496"/>
      <point x="414" y="501"/>
      <point x="414" y="512" type="curve" smooth="yes"/>
      <point x="414" y="523"/>
      <point x="409" y="533"/>
      <point x="398" y="533" type="curve" smooth="yes"/>
      <point x="395" y="533"/>
      <point x="391" y="532"/>
      <point x="388" y="530" type="curve" smooth="yes"/>
      <point x="308" y="494" type="line"/>
      <point x="263" y="551"/>
      <point x="196" y="567"/>
      <point x="147" y="567" type="curve" smooth="yes"/>
      <point x="120" y="567"/>
      <point x="118" y="556"/>
      <point x="118" y="546" type="curve" smooth="yes"/>
      <point x="118" y="536"/>
      <point x="128" y="525"/>
      <point x="142" y="525" type="curve" smooth="yes"/>
      <point x="171" y="525"/>
      <point x="223" y="514"/>
      <point x="260" y="472" type="curve"/>
      <point x="181" y="436" type="line" smooth="yes"/>
      <point x="173" y="433"/>
      <point x="167" y="429"/>
      <point x="167" y="421" type="curve" smooth="yes"/>
      <point x="167" y="410"/>
      <point x="176" y="398"/>
      <point x="188" y="398" type="curve" smooth="yes"/>
      <point x="190" y="398"/>
      <point x="193" y="399"/>
      <point x="196" y="400" type="curve" smooth="yes"/>
      <point x="283" y="439" type="line"/>
      <point x="297" y="413"/>
      <point x="306" y="377"/>
    </contour>
  </outline>
</glyph>
<glyph name="thorn" format="1">
  <advance width="313"/>
  <unicode hex="00FE"/>
  <outline>
    <contour>
      <point x="156" y="44" type="curve" smooth="yes"/>
      <point x="136" y="44"/>
      <point x="113" y="51"/>
      <point x="87" y="66" type="curve"/>
      <point x="108" y="189"/>
      <point x="139" y="278"/>
      <point x="208" y="278" type="curve" smooth="yes"/>
      <point x="241" y="278"/>
      <point x="251" y="246"/>
      <point x="251" y="213" type="curve" smooth="yes"/>
      <point x="251" y="113"/>
      <point x="218" y="44"/>
    </contour>
    <contour>
      <point x="-10" y="-197" type="line" smooth="yes"/>
      <point x="-11" y="-200"/>
      <point x="-11" y="-202"/>
      <point x="-11" y="-204" type="curve" smooth="yes"/>
      <point x="-11" y="-220"/>
      <point x="1" y="-229"/>
      <point x="12" y="-229" type="curve" smooth="yes"/>
      <point x="22" y="-229"/>
      <point x="33" y="-222"/>
      <point x="36" y="-208" type="curve" smooth="yes"/>
      <point x="80" y="29" type="line"/>
      <point x="103" y="9"/>
      <point x="131" y="0"/>
      <point x="158" y="0" type="curve" smooth="yes"/>
      <point x="193" y="0"/>
      <point x="226" y="15"/>
      <point x="245" y="41" type="curve"/>
      <point x="324" y="62"/>
      <point x="366" y="82"/>
      <point x="399" y="104" type="curve" smooth="yes"/>
      <point x="403" y="107"/>
      <point x="405" y="111"/>
      <point x="405" y="116" type="curve" smooth="yes"/>
      <point x="405" y="128"/>
      <point x="395" y="141"/>
      <point x="384" y="141" type="curve" smooth="yes"/>
      <point x="382" y="141"/>
      <point x="380" y="141"/>
      <point x="378" y="140" type="curve" smooth="yes"/>
      <point x="358" y="128"/>
      <point x="321" y="105"/>
      <point x="273" y="92" type="curve"/>
      <point x="292" y="120"/>
      <point x="304" y="165"/>
      <point x="304" y="224" type="curve" smooth="yes"/>
      <point x="304" y="276"/>
      <point x="276" y="326"/>
      <point x="216" y="326" type="curve" smooth="yes"/>
      <point x="195" y="326"/>
      <point x="143" y="311"/>
      <point x="112" y="250" type="curve"/>
      <point x="158" y="483" type="line" smooth="yes"/>
      <point x="159" y="486"/>
      <point x="159" y="490"/>
      <point x="159" y="493" type="curve" smooth="yes"/>
      <point x="159" y="510"/>
      <point x="148" y="519"/>
      <point x="138" y="519" type="curve" smooth="yes"/>
      <point x="130" y="519"/>
      <point x="123" y="513"/>
      <point x="120" y="500" type="curve" smooth="yes"/>
      <point x="103" y="429"/>
      <point x="82" y="319"/>
      <point x="74" y="274" type="curve" smooth="yes"/>
    </contour>
  </outline>
</glyph>
<glyph name="dotlessi" format="1">
  <advance width="183"/>
  <unicode hex="0131"/>
  <outline>
    <contour>
      <point x="172" y="333" type="move" name="top"/>
    </contour>
    <contour>
      <point x="48" y="88" type="curve" smooth="yes"/>
      <point x="48" y="37"/>
      <point x="83" y="-1"/>
      <point x="136" y="-1" type="curve" smooth="yes"/>
      <point x="182" y="-1"/>
      <point x="236" y="27"/>
      <point x="283" y="83" type="curve" smooth="yes"/>
      <point x="290" y="92"/>
      <point x="291" y="96"/>
      <point x="292" y="101" type="curve" smooth="yes"/>
      <point x="292" y="111"/>
      <point x="282" y="120"/>
      <point x="270" y="120" type="curve" smooth="yes"/>
      <point x="266" y="119"/>
      <point x="262" y="116"/>
      <point x="260" y="113" type="curve" smooth="yes"/>
      <point x="218" y="65"/>
      <point x="178" y="42"/>
      <point x="149" y="42" type="curve" smooth="yes"/>
      <point x="122" y="42"/>
      <point x="105" y="62"/>
      <point x="105" y="100" type="curve" smooth="yes"/>
      <point x="105" y="150"/>
      <point x="147" y="259"/>
      <point x="172" y="308" type="curve" smooth="yes"/>
      <point x="173" y="310"/>
      <point x="174" y="311"/>
      <point x="174" y="313" type="curve" smooth="yes"/>
      <point x="174" y="321"/>
      <point x="163" y="326"/>
      <point x="152" y="326" type="curve" smooth="yes"/>
      <point x="132" y="326"/>
      <point x="122" y="323"/>
      <point x="110" y="301" type="curve" smooth="yes"/>
      <point x="83" y="250"/>
      <point x="48" y="147"/>
    </contour>
  </outline>
</glyph>
<glyph name="eng" format="1">
  <advance width="363"/>
  <unicode hex="014B"/>
  <outline>
    <contour>
      <point x="204" y="-44" type="curve"/>
      <point x="178" y="-130"/>
      <point x="136" y="-271"/>
      <point x="46" y="-271" type="curve" smooth="yes"/>
      <point x="28" y="-271"/>
      <point x="23" y="-253"/>
      <point x="23" y="-241" type="curve" smooth="yes"/>
      <point x="27" y="-185"/>
      <point x="130" y="-103"/>
    </contour>
    <contour>
      <point x="281" y="269" type="curve" smooth="yes"/>
      <point x="284" y="269"/>
      <point x="284" y="266"/>
      <point x="284" y="261" type="curve" smooth="yes"/>
      <point x="284" y="231"/>
      <point x="252" y="129"/>
      <point x="239" y="80" type="curve" smooth="yes"/>
      <point x="215" y="5" type="line"/>
      <point x="172" y="-26"/>
      <point x="115" y="-67"/>
      <point x="68" y="-111" type="curve" smooth="yes"/>
      <point x="18" y="-158"/>
      <point x="-20" y="-202"/>
      <point x="-20" y="-253" type="curve" smooth="yes"/>
      <point x="-20" y="-289"/>
      <point x="-3" y="-314"/>
      <point x="39" y="-314" type="curve" smooth="yes"/>
      <point x="99" y="-314"/>
      <point x="153" y="-277"/>
      <point x="180" y="-229" type="curve" smooth="yes"/>
      <point x="210" y="-175"/>
      <point x="233" y="-100"/>
      <point x="261" y="-12" type="curve"/>
      <point x="337" y="38"/>
      <point x="376" y="64"/>
      <point x="425" y="88" type="curve" smooth="yes"/>
      <point x="438" y="96"/>
      <point x="443" y="105"/>
      <point x="443" y="113" type="curve" smooth="yes"/>
      <point x="443" y="123"/>
      <point x="434" y="131"/>
      <point x="423" y="131" type="curve" smooth="yes"/>
      <point x="421" y="131"/>
      <point x="419" y="130"/>
      <point x="417" y="130" type="curve" smooth="yes"/>
      <point x="365" y="106"/>
      <point x="328" y="73"/>
      <point x="271" y="32" type="curve"/>
      <point x="283" y="71" type="line" smooth="yes"/>
      <point x="292" y="108"/>
      <point x="323" y="222"/>
      <point x="346" y="289" type="curve" smooth="yes"/>
      <point x="347" y="291"/>
      <point x="347" y="294"/>
      <point x="347" y="296" type="curve" smooth="yes"/>
      <point x="347" y="311"/>
      <point x="333" y="328"/>
      <point x="304" y="328" type="curve" smooth="yes"/>
      <point x="267" y="328"/>
      <point x="166" y="265"/>
      <point x="91" y="77" type="curve"/>
      <point x="94" y="137"/>
      <point x="128" y="271"/>
      <point x="141" y="305" type="curve" smooth="yes"/>
      <point x="141" y="306"/>
      <point x="142" y="307"/>
      <point x="142" y="308" type="curve" smooth="yes"/>
      <point x="142" y="316"/>
      <point x="129" y="326"/>
      <point x="116" y="326" type="curve" smooth="yes"/>
      <point x="99" y="326"/>
      <point x="95" y="315"/>
      <point x="87" y="298" type="curve" smooth="yes"/>
      <point x="60" y="235"/>
      <point x="43" y="131"/>
      <point x="43" y="63" type="curve" smooth="yes"/>
      <point x="43" y="46" type="line" smooth="yes"/>
      <point x="43" y="19"/>
      <point x="46" y="0"/>
      <point x="68" y="0" type="curve" smooth="yes"/>
      <point x="94" y="0"/>
      <point x="103" y="4"/>
      <point x="116" y="35" type="curve" smooth="yes"/>
      <point x="171" y="189"/>
      <point x="265" y="269"/>
    </contour>
  </outline>
</glyph>
<glyph name="OE" format="1">
  <advance width="1002"/>
  <unicode hex="0152"/>
  <outline>
    <contour>
      <point x="116" y="188" type="curve" smooth="yes"/>
      <point x="116" y="447"/>
      <point x="276" y="639"/>
      <point x="415" y="639" type="curve" smooth="yes"/>
      <point x="537" y="639"/>
      <point x="587" y="549"/>
      <point x="587" y="393" type="curve" smooth="yes"/>
      <point x="587" y="375" type="line" smooth="yes"/>
      <point x="583" y="150"/>
      <point x="430" y="-57"/>
      <point x="302" y="-57" type="curve" smooth="yes"/>
      <point x="169" y="-57"/>
      <point x="116" y="33"/>
    </contour>
    <contour>
      <point x="1077" y="549" type="curve" smooth="yes"/>
      <point x="1077" y="636"/>
      <point x="968" y="682"/>
      <point x="861" y="682" type="curve" smooth="yes"/>
      <point x="759" y="682"/>
      <point x="652" y="642"/>
      <point x="619" y="551" type="curve"/>
      <point x="583" y="647"/>
      <point x="511" y="687"/>
      <point x="408" y="687" type="curve" smooth="yes"/>
      <point x="207" y="687"/>
      <point x="59" y="424"/>
      <point x="59" y="201" type="curve" smooth="yes"/>
      <point x="59" y="-21"/>
      <point x="148" y="-106"/>
      <point x="306" y="-106" type="curve" smooth="yes"/>
      <point x="392" y="-106"/>
      <point x="467" y="-57"/>
      <point x="525" y="19" type="curve"/>
      <point x="546" y="-65"/>
      <point x="635" y="-104"/>
      <point x="732" y="-104" type="curve" smooth="yes"/>
      <point x="871" y="-104"/>
      <point x="1015" y="-33"/>
      <point x="1083" y="77" type="curve" smooth="yes"/>
      <point x="1087" y="83"/>
      <point x="1089" y="90"/>
      <point x="1089" y="96" type="curve" smooth="yes"/>
      <point x="1089" y="110"/>
      <point x="1080" y="118"/>
      <point x="1070" y="118" type="curve" smooth="yes"/>
      <point x="1064" y="118"/>
      <point x="1055" y="115"/>
      <point x="1048" y="104" type="curve" smooth="yes"/>
      <point x="990" y="18"/>
      <point x="855" y="-54"/>
      <point x="738" y="-54" type="curve" smooth="yes"/>
      <point x="736" y="-54" type="line" smooth="yes"/>
      <point x="653" y="-54"/>
      <point x="566" y="-15"/>
      <point x="566" y="71" type="curve" smooth="yes"/>
      <point x="566" y="80" type="line" smooth="yes"/>
      <point x="584" y="121"/>
      <point x="617" y="191"/>
      <point x="636" y="265" type="curve"/>
      <point x="791" y="265" type="line" smooth="yes"/>
      <point x="817" y="265"/>
      <point x="830" y="274"/>
      <point x="830" y="291" type="curve" smooth="yes"/>
      <point x="830" y="303"/>
      <point x="823" y="313"/>
      <point x="811" y="316" type="curve" smooth="yes"/>
      <point x="641" y="316" type="line"/>
      <point x="643" y="328"/>
      <point x="644" y="351"/>
      <point x="644" y="375" type="curve" smooth="yes"/>
      <point x="644" y="417"/>
      <point x="642" y="465"/>
      <point x="639" y="479" type="curve"/>
      <point x="663" y="566"/>
      <point x="746" y="634"/>
      <point x="863" y="634" type="curve" smooth="yes"/>
      <point x="920" y="634"/>
      <point x="982" y="618"/>
      <point x="1018" y="582" type="curve"/>
      <point x="1004" y="555"/>
      <point x="987" y="530"/>
      <point x="987" y="502" type="curve" smooth="yes"/>
      <point x="987" y="486"/>
      <point x="997" y="478"/>
      <point x="1025" y="478" type="curve" smooth="yes"/>
      <point x="1045" y="478"/>
      <point x="1077" y="499"/>
    </contour>
  </outline>
</glyph>
<glyph name="circumflex" format="1">
  <advance width="295"/>
  <unicode hex="02C6"/>
  <outline>
    <contour>
      <point x="144" y="333" type="move" name="_top"/>
    </contour>
    <contour>
      <point x="231" y="424" type="curve" smooth="yes"/>
      <point x="235" y="423"/>
      <point x="238" y="422"/>
      <point x="242" y="422" type="curve" smooth="yes"/>
      <point x="258" y="422"/>
      <point x="270" y="433"/>
      <point x="268" y="453" type="curve" smooth="yes"/>
      <point x="257" y="571" type="line" smooth="yes"/>
      <point x="253" y="613"/>
      <point x="256" y="635"/>
      <point x="217" y="635" type="curve" smooth="yes"/>
      <point x="190" y="635"/>
      <point x="177" y="615"/>
      <point x="154" y="584" type="curve" smooth="yes"/>
      <point x="115" y="531"/>
      <point x="83" y="488"/>
      <point x="66" y="465" type="curve" smooth="yes"/>
      <point x="59" y="453"/>
      <point x="55" y="450"/>
      <point x="55" y="442" type="curve" smooth="yes"/>
      <point x="55" y="432"/>
      <point x="63" y="427"/>
      <point x="73" y="427" type="curve" smooth="yes"/>
      <point x="84" y="427"/>
      <point x="97" y="433"/>
      <point x="106" y="445" type="curve" smooth="yes"/>
      <point x="110" y="451"/>
      <point x="113" y="457"/>
      <point x="210" y="597" type="curve"/>
      <point x="223" y="455"/>
      <point x="208" y="432"/>
    </contour>
  </outline>
</glyph>
<glyph name="pi" format="1">
  <advance width="575"/>
  <unicode hex="03C0"/>
  <outline>
    <contour>
      <point x="449" y="-3" type="curve" smooth="yes"/>
      <point x="466" y="-3"/>
      <point x="477" y="5"/>
      <point x="477" y="20" type="curve" smooth="yes"/>
      <point x="477" y="41"/>
      <point x="464" y="80"/>
      <point x="464" y="150" type="curve" smooth="yes"/>
      <point x="464" y="189"/>
      <point x="468" y="238"/>
      <point x="481" y="300" type="curve"/>
      <point x="494" y="300"/>
      <point x="506" y="299"/>
      <point x="521" y="299" type="curve" smooth="yes"/>
      <point x="586" y="299"/>
      <point x="591" y="308"/>
      <point x="591" y="319" type="curve" smooth="yes"/>
      <point x="591" y="332"/>
      <point x="582" y="343"/>
      <point x="572" y="343" type="curve" smooth="yes"/>
      <point x="570" y="343" type="line" smooth="yes"/>
      <point x="431" y="343"/>
      <point x="405" y="359"/>
      <point x="298" y="359" type="curve" smooth="yes"/>
      <point x="192" y="359"/>
      <point x="135" y="341"/>
      <point x="121" y="248" type="curve" smooth="yes"/>
      <point x="121" y="238"/>
      <point x="133" y="232"/>
      <point x="142" y="232" type="curve" smooth="yes"/>
      <point x="148" y="232"/>
      <point x="152" y="234"/>
      <point x="153" y="239" type="curve" smooth="yes"/>
      <point x="186" y="309"/>
      <point x="196" y="316"/>
      <point x="251" y="316" type="curve" smooth="yes"/>
      <point x="280" y="316" type="line"/>
      <point x="217" y="189"/>
      <point x="175" y="64"/>
      <point x="175" y="29" type="curve" smooth="yes"/>
      <point x="175" y="10"/>
      <point x="180" y="-1"/>
      <point x="198" y="-1" type="curve" smooth="yes"/>
      <point x="217" y="-1"/>
      <point x="225" y="9"/>
      <point x="229" y="35" type="curve" smooth="yes"/>
      <point x="244" y="121"/>
      <point x="281" y="214"/>
      <point x="313" y="316" type="curve"/>
      <point x="355" y="314"/>
      <point x="393" y="307"/>
      <point x="442" y="303" type="curve"/>
      <point x="417" y="201"/>
      <point x="407" y="131"/>
      <point x="407" y="84" type="curve" smooth="yes"/>
      <point x="407" y="18"/>
      <point x="426" y="-3"/>
    </contour>
  </outline>
</glyph>
<glyph name="quotedblright" format="1">
  <advance width="404"/>
  <unicode hex="201D"/>
  <outline>
    <contour>
      <point x="229" y="419" type="curve" smooth="yes"/>
      <point x="229" y="414"/>
      <point x="232" y="408"/>
      <point x="242" y="408" type="curve" smooth="yes"/>
      <point x="249" y="408"/>
      <point x="254" y="415"/>
      <point x="258" y="425" type="curve" smooth="yes"/>
      <point x="276" y="471"/>
      <point x="309" y="549"/>
      <point x="309" y="602" type="curve" smooth="yes"/>
      <point x="309" y="622"/>
      <point x="297" y="631"/>
      <point x="277" y="631" type="curve" smooth="yes"/>
      <point x="257" y="631"/>
      <point x="246" y="623"/>
      <point x="246" y="601" type="curve" smooth="yes"/>
      <point x="246" y="531"/>
      <point x="229" y="439"/>
    </contour>
    <contour>
      <point x="107" y="420" type="curve" smooth="yes"/>
      <point x="107" y="415"/>
      <point x="111" y="408"/>
      <point x="120" y="408" type="curve" smooth="yes"/>
      <point x="127" y="408"/>
      <point x="133" y="415"/>
      <point x="137" y="425" type="curve" smooth="yes"/>
      <point x="155" y="471"/>
      <point x="188" y="549"/>
      <point x="188" y="602" type="curve" smooth="yes"/>
      <point x="188" y="622"/>
      <point x="175" y="631"/>
      <point x="155" y="631" type="curve" smooth="yes"/>
      <point x="135" y="631"/>
      <point x="125" y="623"/>
      <point x="125" y="601" type="curve" smooth="yes"/>
      <point x="125" y="531"/>
      <point x="107" y="439"/>
    </contour>
  </outline>
</glyph>
<glyph name="bullet" format="1">
  <advance width="383"/>
  <unicode hex="2022"/>
  <outline>
    <contour>
      <point x="175" y="96" type="curve" smooth="yes"/>
      <point x="243" y="96"/>
      <point x="285" y="157"/>
      <point x="285" y="229" type="curve" smooth="yes"/>
      <point x="285" y="275"/>
      <point x="264" y="296"/>
      <point x="219" y="296" type="curve" smooth="yes"/>
      <point x="152" y="296"/>
      <point x="98" y="252"/>
      <point x="98" y="186" type="curve" smooth="yes"/>
      <point x="98" y="130"/>
      <point x="123" y="96"/>
    </contour>
  </outline>
</glyph>
<glyph name="caron.alt" format="1">
  <advance width="600"/>
  <outline>
    <contour>
      <point x="54" y="333" type="move" name="_caron.alt"/>
    </contour>
    <contour>
      <point x="63" y="431" type="curve" smooth="yes"/>
      <point x="62" y="430"/>
      <point x="62" y="429"/>
      <point x="62" y="428" type="curve" smooth="yes"/>
      <point x="62" y="423"/>
      <point x="67" y="419"/>
      <point x="71" y="419" type="curve" smooth="yes"/>
      <point x="90" y="419"/>
      <point x="170" y="483"/>
      <point x="197" y="527" type="curve" smooth="yes"/>
      <point x="202" y="535"/>
      <point x="204" y="542"/>
      <point x="204" y="549" type="curve" smooth="yes"/>
      <point x="204" y="565"/>
      <point x="191" y="577"/>
      <point x="178" y="577" type="curve" smooth="yes"/>
      <point x="169" y="577"/>
      <point x="160" y="572"/>
      <point x="153" y="559" type="curve" smooth="yes"/>
      <point x="118" y="492"/>
      <point x="72" y="448"/>
    </contour>
  </outline>
</glyph>
